<mxfile host="app.diagrams.net" modified="2022-12-26T12:38:21.896Z" agent="5.0 (Macintosh; Intel Mac OS X 10_15_7) AppleWebKit/537.36 (KHTML, like Gecko) Chrome/108.0.0.0 Safari/537.36" etag="-Un7wqkwTLFfAdTI0Vqz" version="20.5.3" type="github">
  <diagram id="onqq4Maiqvh-qUwKiTgA" name="Page-1">
    <mxGraphModel dx="1173" dy="658" grid="0" gridSize="10" guides="0" tooltips="1" connect="1" arrows="1" fold="1" page="0" pageScale="1" pageWidth="827" pageHeight="1169" math="0" shadow="0">
      <root>
        <mxCell id="0" />
        <mxCell id="1" parent="0" />
        <mxCell id="DJqyfjHrV4xUOtq158uN-16" value="" style="rounded=0;whiteSpace=wrap;html=1;fillColor=none;dashed=1;" vertex="1" parent="1">
          <mxGeometry x="780" y="260" width="130" height="110" as="geometry" />
        </mxCell>
        <mxCell id="DJqyfjHrV4xUOtq158uN-15" value="" style="rounded=0;whiteSpace=wrap;html=1;fillColor=none;dashed=1;" vertex="1" parent="1">
          <mxGeometry x="420" y="260" width="310" height="110" as="geometry" />
        </mxCell>
        <mxCell id="DJqyfjHrV4xUOtq158uN-14" value="" style="rounded=0;whiteSpace=wrap;html=1;fillColor=none;dashed=1;" vertex="1" parent="1">
          <mxGeometry x="180" y="260" width="210" height="110" as="geometry" />
        </mxCell>
        <mxCell id="DJqyfjHrV4xUOtq158uN-7" style="edgeStyle=orthogonalEdgeStyle;rounded=0;orthogonalLoop=1;jettySize=auto;html=1;exitX=0.5;exitY=0.5;exitDx=0;exitDy=0;exitPerimeter=0;entryX=0;entryY=0.5;entryDx=0;entryDy=0;" edge="1" parent="1" source="DJqyfjHrV4xUOtq158uN-1" target="DJqyfjHrV4xUOtq158uN-2">
          <mxGeometry relative="1" as="geometry" />
        </mxCell>
        <mxCell id="DJqyfjHrV4xUOtq158uN-1" value="User" style="shape=umlActor;verticalLabelPosition=bottom;verticalAlign=top;html=1;outlineConnect=0;" vertex="1" parent="1">
          <mxGeometry x="90" y="310" width="30" height="60" as="geometry" />
        </mxCell>
        <mxCell id="DJqyfjHrV4xUOtq158uN-8" style="edgeStyle=orthogonalEdgeStyle;rounded=0;orthogonalLoop=1;jettySize=auto;html=1;exitX=1;exitY=0.5;exitDx=0;exitDy=0;entryX=0;entryY=0.5;entryDx=0;entryDy=0;" edge="1" parent="1" source="DJqyfjHrV4xUOtq158uN-2" target="DJqyfjHrV4xUOtq158uN-3">
          <mxGeometry relative="1" as="geometry" />
        </mxCell>
        <mxCell id="DJqyfjHrV4xUOtq158uN-2" value="A" style="rounded=0;whiteSpace=wrap;html=1;fillColor=#dae8fc;strokeColor=#6c8ebf;" vertex="1" parent="1">
          <mxGeometry x="200" y="320" width="70" height="40" as="geometry" />
        </mxCell>
        <mxCell id="DJqyfjHrV4xUOtq158uN-9" style="edgeStyle=orthogonalEdgeStyle;rounded=0;orthogonalLoop=1;jettySize=auto;html=1;exitX=1;exitY=0.5;exitDx=0;exitDy=0;entryX=0;entryY=0.5;entryDx=0;entryDy=0;" edge="1" parent="1" source="DJqyfjHrV4xUOtq158uN-3" target="DJqyfjHrV4xUOtq158uN-4">
          <mxGeometry relative="1" as="geometry" />
        </mxCell>
        <mxCell id="DJqyfjHrV4xUOtq158uN-3" value="B" style="rounded=0;whiteSpace=wrap;html=1;fillColor=#dae8fc;strokeColor=#6c8ebf;" vertex="1" parent="1">
          <mxGeometry x="313" y="320" width="70" height="40" as="geometry" />
        </mxCell>
        <mxCell id="DJqyfjHrV4xUOtq158uN-10" style="edgeStyle=orthogonalEdgeStyle;rounded=0;orthogonalLoop=1;jettySize=auto;html=1;exitX=1;exitY=0.5;exitDx=0;exitDy=0;entryX=0;entryY=0.5;entryDx=0;entryDy=0;" edge="1" parent="1" source="DJqyfjHrV4xUOtq158uN-4" target="DJqyfjHrV4xUOtq158uN-5">
          <mxGeometry relative="1" as="geometry" />
        </mxCell>
        <mxCell id="DJqyfjHrV4xUOtq158uN-4" value="C" style="rounded=0;whiteSpace=wrap;html=1;fillColor=#d5e8d4;strokeColor=#82b366;" vertex="1" parent="1">
          <mxGeometry x="425" y="320" width="70" height="40" as="geometry" />
        </mxCell>
        <mxCell id="DJqyfjHrV4xUOtq158uN-11" style="edgeStyle=orthogonalEdgeStyle;rounded=0;orthogonalLoop=1;jettySize=auto;html=1;exitX=1;exitY=0.5;exitDx=0;exitDy=0;entryX=0;entryY=0.5;entryDx=0;entryDy=0;" edge="1" parent="1" source="DJqyfjHrV4xUOtq158uN-5" target="DJqyfjHrV4xUOtq158uN-6">
          <mxGeometry relative="1" as="geometry" />
        </mxCell>
        <mxCell id="DJqyfjHrV4xUOtq158uN-5" value="D" style="rounded=0;whiteSpace=wrap;html=1;fillColor=#d5e8d4;strokeColor=#82b366;" vertex="1" parent="1">
          <mxGeometry x="538" y="320" width="70" height="40" as="geometry" />
        </mxCell>
        <mxCell id="DJqyfjHrV4xUOtq158uN-13" style="edgeStyle=orthogonalEdgeStyle;rounded=0;orthogonalLoop=1;jettySize=auto;html=1;exitX=1;exitY=0.5;exitDx=0;exitDy=0;entryX=0;entryY=0.5;entryDx=0;entryDy=0;" edge="1" parent="1" source="DJqyfjHrV4xUOtq158uN-6" target="DJqyfjHrV4xUOtq158uN-12">
          <mxGeometry relative="1" as="geometry" />
        </mxCell>
        <mxCell id="DJqyfjHrV4xUOtq158uN-6" value="E" style="rounded=0;whiteSpace=wrap;html=1;fillColor=#d5e8d4;strokeColor=#82b366;" vertex="1" parent="1">
          <mxGeometry x="650" y="320" width="70" height="40" as="geometry" />
        </mxCell>
        <mxCell id="DJqyfjHrV4xUOtq158uN-12" value="F" style="rounded=0;whiteSpace=wrap;html=1;fillColor=#ffe6cc;strokeColor=#d79b00;" vertex="1" parent="1">
          <mxGeometry x="808" y="320" width="70" height="40" as="geometry" />
        </mxCell>
        <mxCell id="DJqyfjHrV4xUOtq158uN-17" value="B2C" style="text;html=1;align=center;verticalAlign=middle;resizable=0;points=[];autosize=1;strokeColor=none;fillColor=none;" vertex="1" parent="1">
          <mxGeometry x="265" y="380" width="50" height="30" as="geometry" />
        </mxCell>
        <mxCell id="DJqyfjHrV4xUOtq158uN-18" value="中台订单" style="text;html=1;align=center;verticalAlign=middle;resizable=0;points=[];autosize=1;strokeColor=none;fillColor=none;" vertex="1" parent="1">
          <mxGeometry x="538" y="380" width="70" height="30" as="geometry" />
        </mxCell>
        <mxCell id="DJqyfjHrV4xUOtq158uN-19" value="搜索" style="text;html=1;align=center;verticalAlign=middle;resizable=0;points=[];autosize=1;strokeColor=none;fillColor=none;" vertex="1" parent="1">
          <mxGeometry x="817" y="380" width="50" height="30" as="geometry" />
        </mxCell>
        <mxCell id="DJqyfjHrV4xUOtq158uN-28" value="&lt;span style=&quot;&quot;&gt;clearDirtyData(start,end)&lt;/span&gt;" style="text;html=1;align=center;verticalAlign=middle;resizable=0;points=[];autosize=1;strokeColor=none;fillColor=none;" vertex="1" parent="1">
          <mxGeometry x="211" y="232" width="149" height="26" as="geometry" />
        </mxCell>
        <mxCell id="DJqyfjHrV4xUOtq158uN-29" value="" style="endArrow=classic;html=1;rounded=0;exitX=0.5;exitY=0;exitDx=0;exitDy=0;entryX=0.5;entryY=0;entryDx=0;entryDy=0;dashed=1;strokeColor=#FF0000;" edge="1" parent="1" source="DJqyfjHrV4xUOtq158uN-14" target="DJqyfjHrV4xUOtq158uN-2">
          <mxGeometry width="50" height="50" relative="1" as="geometry">
            <mxPoint x="285" y="242" as="sourcePoint" />
            <mxPoint x="290" y="550" as="targetPoint" />
          </mxGeometry>
        </mxCell>
        <mxCell id="DJqyfjHrV4xUOtq158uN-31" value="&lt;span style=&quot;&quot;&gt;clearDirtyData(start,end)&lt;/span&gt;" style="text;html=1;align=center;verticalAlign=middle;resizable=0;points=[];autosize=1;strokeColor=none;fillColor=none;" vertex="1" parent="1">
          <mxGeometry x="501" y="232" width="149" height="26" as="geometry" />
        </mxCell>
        <mxCell id="DJqyfjHrV4xUOtq158uN-33" value="" style="endArrow=classic;html=1;rounded=0;entryX=0.5;entryY=0;entryDx=0;entryDy=0;dashed=1;strokeColor=#FF0000;" edge="1" parent="1" target="DJqyfjHrV4xUOtq158uN-3">
          <mxGeometry width="50" height="50" relative="1" as="geometry">
            <mxPoint x="285" y="260" as="sourcePoint" />
            <mxPoint x="245" y="330" as="targetPoint" />
          </mxGeometry>
        </mxCell>
        <mxCell id="DJqyfjHrV4xUOtq158uN-34" value="" style="endArrow=classic;html=1;rounded=0;exitX=0.5;exitY=0;exitDx=0;exitDy=0;entryX=0.5;entryY=0;entryDx=0;entryDy=0;dashed=1;strokeColor=#FF0000;" edge="1" parent="1" source="DJqyfjHrV4xUOtq158uN-15" target="DJqyfjHrV4xUOtq158uN-4">
          <mxGeometry width="50" height="50" relative="1" as="geometry">
            <mxPoint x="295" y="270" as="sourcePoint" />
            <mxPoint x="245" y="330" as="targetPoint" />
          </mxGeometry>
        </mxCell>
        <mxCell id="DJqyfjHrV4xUOtq158uN-35" value="" style="endArrow=classic;html=1;rounded=0;exitX=0.5;exitY=0;exitDx=0;exitDy=0;entryX=0.5;entryY=0;entryDx=0;entryDy=0;dashed=1;strokeColor=#FF0000;" edge="1" parent="1" source="DJqyfjHrV4xUOtq158uN-15" target="DJqyfjHrV4xUOtq158uN-5">
          <mxGeometry width="50" height="50" relative="1" as="geometry">
            <mxPoint x="575" y="270" as="sourcePoint" />
            <mxPoint x="470" y="330" as="targetPoint" />
          </mxGeometry>
        </mxCell>
        <mxCell id="DJqyfjHrV4xUOtq158uN-36" value="" style="endArrow=classic;html=1;rounded=0;exitX=0.5;exitY=0;exitDx=0;exitDy=0;entryX=0.5;entryY=0;entryDx=0;entryDy=0;dashed=1;strokeColor=#FF0000;" edge="1" parent="1" source="DJqyfjHrV4xUOtq158uN-15" target="DJqyfjHrV4xUOtq158uN-6">
          <mxGeometry width="50" height="50" relative="1" as="geometry">
            <mxPoint x="585" y="270" as="sourcePoint" />
            <mxPoint x="583" y="330" as="targetPoint" />
          </mxGeometry>
        </mxCell>
        <mxCell id="DJqyfjHrV4xUOtq158uN-37" value="" style="endArrow=classic;html=1;rounded=0;exitX=0.5;exitY=0;exitDx=0;exitDy=0;dashed=1;strokeColor=#FF0000;entryX=0.5;entryY=0;entryDx=0;entryDy=0;" edge="1" parent="1" source="DJqyfjHrV4xUOtq158uN-16" target="DJqyfjHrV4xUOtq158uN-12">
          <mxGeometry width="50" height="50" relative="1" as="geometry">
            <mxPoint x="585" y="270" as="sourcePoint" />
            <mxPoint x="750" y="430" as="targetPoint" />
          </mxGeometry>
        </mxCell>
        <mxCell id="DJqyfjHrV4xUOtq158uN-38" value="&lt;span style=&quot;&quot;&gt;clearDirtyData(start,end)&lt;/span&gt;" style="text;html=1;align=center;verticalAlign=middle;resizable=0;points=[];autosize=1;strokeColor=none;fillColor=none;" vertex="1" parent="1">
          <mxGeometry x="771" y="232" width="149" height="26" as="geometry" />
        </mxCell>
        <mxCell id="DJqyfjHrV4xUOtq158uN-42" style="edgeStyle=orthogonalEdgeStyle;rounded=0;orthogonalLoop=1;jettySize=auto;html=1;exitX=0.5;exitY=1;exitDx=0;exitDy=0;entryX=0.493;entryY=1.1;entryDx=0;entryDy=0;entryPerimeter=0;dashed=1;strokeColor=#FF0000;" edge="1" parent="1" source="DJqyfjHrV4xUOtq158uN-40" target="DJqyfjHrV4xUOtq158uN-28">
          <mxGeometry relative="1" as="geometry" />
        </mxCell>
        <mxCell id="DJqyfjHrV4xUOtq158uN-43" style="edgeStyle=orthogonalEdgeStyle;rounded=0;orthogonalLoop=1;jettySize=auto;html=1;exitX=0.5;exitY=1;exitDx=0;exitDy=0;dashed=1;strokeColor=#FF0000;" edge="1" parent="1" source="DJqyfjHrV4xUOtq158uN-40">
          <mxGeometry relative="1" as="geometry">
            <mxPoint x="575" y="260" as="targetPoint" />
          </mxGeometry>
        </mxCell>
        <mxCell id="DJqyfjHrV4xUOtq158uN-44" style="edgeStyle=orthogonalEdgeStyle;rounded=0;orthogonalLoop=1;jettySize=auto;html=1;exitX=0.5;exitY=1;exitDx=0;exitDy=0;dashed=1;strokeColor=#FF0000;" edge="1" parent="1" source="DJqyfjHrV4xUOtq158uN-40" target="DJqyfjHrV4xUOtq158uN-16">
          <mxGeometry relative="1" as="geometry">
            <Array as="points">
              <mxPoint x="575" y="170" />
              <mxPoint x="845" y="170" />
            </Array>
          </mxGeometry>
        </mxCell>
        <mxCell id="DJqyfjHrV4xUOtq158uN-47" style="edgeStyle=orthogonalEdgeStyle;rounded=0;orthogonalLoop=1;jettySize=auto;html=1;dashed=1;strokeColor=#FF0000;" edge="1" parent="1" source="DJqyfjHrV4xUOtq158uN-40">
          <mxGeometry relative="1" as="geometry">
            <mxPoint x="1037" y="269" as="targetPoint" />
            <Array as="points">
              <mxPoint x="575" y="169" />
              <mxPoint x="1037" y="169" />
            </Array>
          </mxGeometry>
        </mxCell>
        <mxCell id="DJqyfjHrV4xUOtq158uN-41" value="压测平台" style="text;html=1;align=center;verticalAlign=middle;resizable=0;points=[];autosize=1;strokeColor=none;fillColor=none;rounded=1;glass=0;labelBackgroundColor=#FFFFFF;" vertex="1" parent="1">
          <mxGeometry x="540" y="108" width="70" height="30" as="geometry" />
        </mxCell>
        <mxCell id="DJqyfjHrV4xUOtq158uN-48" value="其他" style="text;html=1;align=center;verticalAlign=middle;resizable=0;points=[];autosize=1;strokeColor=none;fillColor=none;" vertex="1" parent="1">
          <mxGeometry x="1031" y="211" width="42" height="26" as="geometry" />
        </mxCell>
        <mxCell id="DJqyfjHrV4xUOtq158uN-40" value="" style="shape=image;verticalLabelPosition=bottom;labelBackgroundColor=default;verticalAlign=top;aspect=fixed;imageAspect=0;image=https://jmeter.zhuanspirit.com/pts/logo.svg;imageBorder=default;" vertex="1" parent="1">
          <mxGeometry x="530" y="20" width="90" height="90" as="geometry" />
        </mxCell>
      </root>
    </mxGraphModel>
  </diagram>
</mxfile>
